#!OML:ASF H:\Terrain\Patient Classification 1\Takeo\Monday\TakeoMonday.ASF
:FULLY-SPECIFIED
:DEGREES
638
root 9.79879 17.102 -0.290174 -8.28922 -22.8515 2.43953
lowerback 10.2883 -0.394941 1.16338
upperback 5.71456 -0.464252 1.66718
thorax 0.177584 -0.255171 1.11491
lowerneck -13.635 9.26229 2.1124
upperneck 1.24327 12.5778 -10.1342
head 3.35183 5.80871 -2.50102
rclavicle 7.61345e-014 -1.74931e-014
rhumerus -16.387 32.1921 -74.7964
rradius 111.367
rwrist -1.18744
rhand -23.4975 22.9478
rfingers 7.12502
rthumb 2.96265 -7.01136
lclavicle 7.61345e-014 -1.74931e-014
lhumerus -33.4282 -11.8127 97.8814
lradius 111.934
lwrist 19.9577
lhand -26.4361 2.07795
lfingers 7.12502
lthumb 0.12451 32.0577
rfemur 1.4323 -7.92052 16.8442
rtibia 36.4219
rfoot -25.6916 -19.2956
rtoes -13.1649
lfemur -15.7735 13.6837 -20.0569
ltibia 42.1781
lfoot -14.0867 11.4499
ltoes -7.76298
639
root 9.78907 17.1108 -0.283741 -8.19055 -21.9081 1.8217
lowerback 10.504 -0.313996 1.37451
upperback 5.87632 -0.336682 1.7273
thorax 0.227 -0.187501 1.04706
lowerneck -13.8469 8.90985 1.38803
upperneck 1.17535 12.1648 -9.41464
head 3.2454 5.62916 -2.21178
rclavicle -6.77856e-014 5.56597e-015
rhumerus -14.709 32.4804 -73.9647
rradius 111.06
rwrist -1.5655
rhand -23.8848 22.2781
rfingers 7.12502
rthumb 2.58862 -7.68593
lclavicle -6.77856e-014 5.56597e-015
lhumerus -33.2007 -11.8289 98.0513
lradius 111.942
lwrist 19.8732
lhand -26.3658 2.14094
lfingers 7.12502
lthumb 0.192462 32.1206
rfemur 1.94499 -8.29838 17.4704
rtibia 36.0987
rfoot -25.8342 -19.6435
rtoes -11.1622
lfemur -15.8128 13.2494 -19.4875
ltibia 42.3121
lfoot -13.8908 10.766
ltoes -7.90115
640
root 9.78778 17.1291 -0.276841 -7.92749 -20.8932 1.43614
lowerback 10.6135 -0.324463 1.32855
upperback 5.78675 -0.345901 1.78164
thorax 0.0748439 -0.193019 1.13115
lowerneck -13.7259 8.57601 1.17526
upperneck 0.967581 11.7321 -9.10233
head 3.44555 5.44866 -2.34992
rclavicle -1.89839e-014 -3.18055e-015
rhumerus -13.0166 32.9944 -73.1566
rradius 110.598
rwrist -1.57352
rhand -23.9825 21.2952
rfingers 7.12502
rthumb 2.49428 -8.66991
lclavicle -1.89839e-014 -3.18055e-015
lhumerus -33.4252 -11.4835 98.2428
lradius 112.056
lwrist 19.7362
lhand -26.258 2.10477
lfingers 7.12502
lthumb 0.296532 32.0843
rfemur 2.18224 -8.70972 17.8586
rtibia 35.6717
rfoot -26.0427 -20.0504
rtoes -10.3313
lfemur -16.2026 12.5439 -19.2802
ltibia 42.5315
lfoot -14.0118 10.2297
ltoes -5.70008
641
root 9.78917 17.125 -0.272172 -7.61298 -19.863 1.33212
lowerback 10.6012 -0.288072 1.11031
upperback 5.68097 -0.312389 1.62877
thorax -0.0294086 -0.176993 1.09228
lowerneck -13.939 8.24631 1.25492
upperneck 1.39176 11.3094 -9.27786
head 3.26625 5.2022 -2.21433
rclavicle 2.20651e-014 2.46493e-014
rhumerus -11.3942 33.2814 -72.6054
rradius 110.065
rwrist -1.57084
rhand -24.142 20.4754
rfingers 7.12502
rthumb 2.34024 -9.49148
lclavicle 2.20651e-014 2.46493e-014
lhumerus -33.5457 -11.3959 98.1682
lradius 112.102
lwrist 19.6969
lhand -26.2519 2.13927
lfingers 7.12502
lthumb 0.302477 32.1188
rfemur 2.26127 -9.25653 17.9473
rtibia 35.2214
rfoot -26.2542 -20.5378
rtoes -10.9177
lfemur -16.7419 11.875 -19.4437
ltibia 42.7684
lfoot -13.9022 9.88771
ltoes -6.06549
642
root 9.77945 17.1151 -0.264292 -7.31132 -18.8459 0.755858
lowerback 10.6895 -0.248761 1.26403
upperback 5.68711 -0.242154 1.62537
thorax -0.0722221 -0.137707 0.995591
lowerneck -13.6687 8.00961 1.41154
upperneck 0.819197 10.9308 -9.20148
head 3.3649 5.05801 -2.49956
rclavicle -1.11319e-014 -1.27222e-014
rhumerus -9.78538 33.5526 -71.9327
rradius 109.62
rwrist -2.01376
rhand -25.1162 20.2558
rfingers 7.12502
rthumb 1.3993 -9.71931
lclavicle -1.11319e-014 -1.27222e-014
lhumerus -33.5153 -11.3497 98.0891
lradius 112.137
lwrist 19.6572
lhand -26.2629 2.11016
lfingers 7.12502
lthumb 0.291835 32.0897
rfemur 2.49783 -9.82484 18.5659
rtibia 34.8614
rfoot -26.2076 -21.3111
rtoes -11.4553
lfemur -17.0129 11.4091 -19.0476
ltibia 42.9083
lfoot -13.6067 9.49206
ltoes -7.92418
643
root 9.7667 17.1163 -0.256024 -6.95061 -17.8367 0.00287145
lowerback 10.7627 -0.227606 1.54942
upperback 5.70668 -0.184089 1.66059
thorax -0.0922602 -0.102433 0.865919
lowerneck -13.3992 7.75004 1.011
upperneck 0.40442 10.5805 -8.7544
head 3.08666 4.92185 -2.32146
rclavicle -3.03147e-014 3.18055e-014
rhumerus -7.99016 33.6534 -71.1669
rradius 109.111
rwrist -1.98947
rhand -24.9704 19.9417
rfingers 7.12502
rthumb 1.5402 -10.0324
lclavicle -3.03147e-014 3.18055e-014
lhumerus -33.4048 -11.317 97.8874
lradius 112.166
lwrist 19.589
lhand -26.5534 2.05255
lfingers 7.12502
lthumb 0.0112612 32.0323
rfemur 2.63515 -10.2756 19.4419
rtibia 34.5864
rfoot -26.1707 -21.9364
rtoes -10.9316
lfemur -17.3028 10.9215 -18.383
ltibia 42.9251
lfoot -13.5389 8.85446
ltoes -8.01616
644
root 9.75881 17.1216 -0.24578 -6.73304 -16.7997 0.131373
lowerback 10.6602 -0.0973993 1.11598
upperback 5.71869 -0.0534404 1.38375
thorax -0.0257023 -0.0404149 0.808818
lowerneck -13.5413 7.36514 0.442259
upperneck 0.422502 10.1094 -7.93333
head 2.99815 4.71428 -1.98143
rclavicle 8.05078e-015 -5.1684e-015
rhumerus -6.08707 33.4987 -70.4257
rradius 108.464
rwrist -1.56368
rhand -23.0763 19.008
rfingers 7.12502
rthumb 3.36942 -10.9451
lclavicle 8.05078e-015 -5.1684e-015
lhumerus -33.2329 -11.3255 97.6265
lradius 112.086
lwrist 19.3974
lhand -26.6539 2.02493
lfingers 7.12502
lthumb -0.0858136 32.0047
rfemur 2.62887 -10.6528 19.3692
rtibia 34.3238
rfoot -26.4479 -22.1895
rtoes -10.0603
lfemur -17.6866 10.2836 -18.6501
ltibia 42.8393
lfoot -13.7732 8.2254
ltoes -6.21095
645
root 9.75687 17.123 -0.231033 -6.71185 -15.65 0.470497
lowerback 10.7628 0.0438167 0.579553
upperback 5.70317 0.0865922 1.07517
thorax -0.0997912 0.0242422 0.776624
lowerneck -13.7237 6.94734 -0.039247
upperneck 0.542542 9.60382 -7.30753
head 2.97959 4.47864 -1.72329
rclavicle 8.15017e-015 7.95139e-016
rhumerus -4.40228 33.425 -69.6467
rradius 107.852
rwrist -1.65807
rhand -23.2776 19.3014
rfingers 7.12502
rthumb 3.17498 -10.6547
lclavicle 8.15017e-015 7.95139e-016
lhumerus -33.3555 -11.2119 97.6303
lradius 112.082
lwrist 19.2719
lhand -26.4918 1.56658
lfingers 7.12502
lthumb 0.0707679 31.5463
rfemur 2.80548 -11.2097 18.9513
rtibia 34.1062
rfoot -26.711 -22.5504
rtoes -10.7149
lfemur -17.8462 9.49376 -19.2096
ltibia 42.7045
lfoot -13.7831 7.90578
ltoes -5.42119
646
root 9.75313 17.1189 -0.220648 -6.55612 -14.4721 0.196446
lowerback 10.9668 0.148673 0.620779
upperback 5.7131 0.232678 0.935897
thorax -0.200927 0.1012 0.593594
lowerneck -13.9287 6.564 -0.067568
upperneck 0.534047 9.09077 -7.12695
head 2.98281 4.22781 -1.69218
rclavicle -2.88238e-015 -3.18055e-015
rhumerus -2.82187 33.2214 -68.9423
rradius 107.229
rwrist -1.62686
rhand -23.3336 19.1788
rfingers 7.12502
rthumb 3.12096 -10.7781
lclavicle -2.88238e-015 -3.18055e-015
lhumerus -33.3722 -11.3957 97.6276
lradius 112.146
lwrist 19.6492
lhand -26.5401 1.41255
lfingers 7.12502
lthumb 0.024061 31.3923
rfemur 2.97345 -11.8773 19.207
rtibia 33.9638
rfoot -26.8593 -23.1077
rtoes -11.6299
lfemur -17.992 8.77969 -19.1155
ltibia 42.525
lfoot -13.4682 7.57864
ltoes -5.71911
